<svg width="18" height="18" xmlns="http://www.w3.org/2000/svg"><g fill-rule="evenodd"><path d="M1.188 15.446h15.446c.657 0 1.188.656 1.188 1.188 0 .657-.531 1.188-1.188 1.188H1.188C.532 17.822 0 17.166 0 16.634c0-.656.532-1.188 1.188-1.188zm4.438-7.983a1.267 1.267 0 0 0-1.79 0 1.259 1.259 0 0 0 0 1.784l4.478 4.467c.33.329.864.328 1.194 0l4.478-4.467a1.26 1.26 0 0 0 0-1.784 1.267 1.267 0 0 0-1.79 0l-2.031 2.026V1.36C10.165.664 9.598.1 8.899.1 8.2.099 7.634.663 7.634 1.36v8.106L5.626 7.463z"/></g></svg>